<svg xmlns="http://www.w3.org/2000/svg" id="Layer_1" data-name="Layer 1" viewBox="0 0 91.69 30.94"><defs><style>.cls-1{fill:#fdfdfd}.cls-1,.cls-2,.cls-3{stroke:#1b1b1b;stroke-miterlimit:10;stroke-width:.15px}.cls-2{fill:#fbb91e}.cls-3{fill:#fff}</style></defs><path d="M10.32,14.42h0c0-.58-.35-10.7-.38-11.27,0,0-.32,8.91-.39,12.28.18,0,5.6-1.59,5.62-1.6-.26.47-5,10-6.38,12.8a9.87,9.87,0,0,1-1.52,2.14,4.85,4.85,0,0,1-2.14,1.33,2.11,2.11,0,0,1-2.23-.61,3.82,3.82,0,0,1,0-3.27,6.91,6.91,0,0,1,.39-.94l.8.06a.15.15,0,0,0,.13-.06l1-1.32a.13.13,0,0,0,0-.2l-.22-.17.43-.6a.16.16,0,0,0,0-.22.17.17,0,0,0-.23,0l-.43.6-.52-.35.44-.6a.17.17,0,1,0-.27-.19l-.43.6-.23-.16a.13.13,0,0,0-.2,0l-1,1.34a.14.14,0,0,0,0,.14l.38.81-.08.14A7.17,7.17,0,0,0,2,27.89,2.5,2.5,0,0,0,4.8,30.74c2.45-.28,4.11-2.53,5.18-4.49,1.18-2.13,7-14,7.07-14C16.91,12.29,11.36,14.07,10.32,14.42ZM3.38,24.09a.27.27,0,0,1,.45.3A.27.27,0,0,1,3.38,24.09Z" class="cls-1"/><path d="M15.32,3.06C15.47.58,13.24-.43,11.14.6A9.24,9.24,0,0,0,7.33,4.71C6.15,6.84,5,9,4,11.16c-.41.81-1.21,2.44-1.6,3.26S.58,18.06.25,18.7c2-.64,4.66-1.48,6.75-2.17,0,1.57.12,4.06.16,5.39.06,1.65.14,4.26.23,5.89l.07-1.48c.15-3.37.25-7.42.33-10.81C6.16,16,4,16.59,2.17,17.12c.65-1.27,1.56-3.07,2-3.86,1.35-2.68,2.67-5.46,4-8.15a11.33,11.33,0,0,1,1.92-2.93,6.27,6.27,0,0,1,1.37-1,2.37,2.37,0,0,1,3,.32c.65.92.37,2.25.05,3.27-.1.28-.22.55-.34.81l-.06.11-.8-.05a.21.21,0,0,0-.13.05L12.2,7a.14.14,0,0,0,0,.2l.23.16L12,8a.17.17,0,0,0,0,.22.16.16,0,0,0,.23,0l.43-.6.52.36-.43.6a.16.16,0,0,0,0,.22.17.17,0,0,0,.23,0l.43-.6.23.16a.15.15,0,0,0,.21,0l1-1.33a.17.17,0,0,0,0-.14l-.37-.81.07-.15A7.27,7.27,0,0,0,15.32,3.06ZM13.93,6.87a.28.28,0,0,1-.38.07.27.27,0,0,1-.07-.38.29.29,0,0,1,.38-.07A.26.26,0,0,1,13.93,6.87Z" class="cls-2"/><g id="text-logo"><g id="text-logo-path-0"><path d="M24.18,17.94H19.67V11.88h4.5v.87H20.55v1.73h3.09v.86H20.55v1.74h3.62v.86Zm6.88,0H27V11.88h.88v5.2h3.17Zm7.06,0h-4.5V11.88h4.5v.87H34.5v1.73h3.09v.86H34.5v1.74h3.62Zm2.82-.86h0V12.75a.73.73,0,0,1,.08-.33.61.61,0,0,1,.19-.28,1,1,0,0,1,.28-.19.93.93,0,0,1,.33-.07h3.36a.93.93,0,0,1,.33.07,1,1,0,0,1,.28.19.84.84,0,0,1,.2.28.88.88,0,0,1,.07.33h0v.78h-.88v-.78H41.82v4.33h3.36V16.3h.88v.78a.93.93,0,0,1-.07.33.76.76,0,0,1-.2.27.82.82,0,0,1-.28.19.93.93,0,0,1-.33.07H41.82a.93.93,0,0,1-.33-.07.61.61,0,0,1-.28-.19.74.74,0,0,1-.19-.27A.64.64,0,0,1,40.94,17.08Zm9.53-4.33h-2v-.87h4.94v.87h-2v5.19h-.88Zm6.35,5.19h-.88V11.88h3.38a1.31,1.31,0,0,1,1.5,1.47h0v.7a1.26,1.26,0,0,1-1.1,1.44h0l1.16,2.45h-1l-1.14-2.42H56.82Zm0-5.19v1.9h2.46a.72.72,0,0,0,.51-.16.67.67,0,0,0,.15-.49h0v-.6a.77.77,0,0,0-.15-.51.76.76,0,0,0-.51-.14H56.82Zm7.32,5.19h-.88l2.38-6.06h.88l2.38,6.06H68l-.54-1.4H64.69ZM66.08,13,65,15.68h2.11Zm6.26,4.93h-.88V11.88h.88l3.71,4.71V11.88h.88v6.06h-.88l-3.71-4.7Zm9.18-5.19h-2v-.87h4.94v.87h-2v5.19h-.88Zm5.13,5.19h-.88l2.38-6.06H89l2.38,6.06h-.88L90,16.54h-2.8ZM88.59,13l-1.06,2.67h2.1Z" class="cls-3"/></g></g></svg>